# xmcd
#
# Track frame offsets:
#	150
#	18914
#	36804
#	57422
#	75002
#	91346
#	110959
#	138105
#	157695
#	173963
#	194560
#	212972
#	229362
#	246797
#	264706
#	281548
#	296829
#
# Disc length: 4231 seconds
#
# Revision: 0
# Processed by: cddbd v1.5.2PL0 Copyright (c) Steve Scherf et al.
# Submitted via: EasyCDDAExtractor 11.1.0.1
#
DISCID=f2108511
DTITLE=Various Artist - Save The Best For Last
DYEAR=1900
DGENRE=Country
TTITLE0=Righteous Brothers The - Righteous Brothers The - Unchained Melody
TTITLE1=Gallagher and Lyle - Gallagher and Lyle - Heart On My Sleeve
TTITLE2=Black - Black - Wonderful Life
TTITLE3=Graham Jaki and Grant David - Jaki Graham and David Grant - Could It B
TTITLE3=e I'q Falling in Love
TTITLE4=Deacon Blue - Deacon Blue - The Look of Love
TTITLE5=Tiffany - Tiffany - Could've Been
TTITLE6=Mandel Johnny ans MASH - Johnny Mandel and MASH - Theme from MASH
TTITLE7=Lauper Cindi - Cyndi Lauper - True Colours
TTITLE8=Jackson Michael - Michael Jackson - Ben
TTITLE9=Cocker Joe and jWarnes Jennifer - Joe Cocker and Jennifer Warnes - Up 
TTITLE9=Where We Belong
TTITLE10=Chamaign - Champaign - How 'bout Us
TTITLE11=Bush Kate  - Kate Bush - The Man With The Cild In His
TTITLE12=Duran Duran - Duran Duran - Save A Prayer
TTITLE13=O'Conor Hazel - Hazel O'Connor - Will You
TTITLE14=Diamond Jim  - Jim Diamond - I Should Have Known Better
TTITLE15=Flack Roberta and Bryson Peabo - Roberta Flack - Tonight I Celebrate 
TTITLE15=My Love
TTITLE16=Lind - Lind - Save The Best For Last
EXTD=
EXTT0=
EXTT1=
EXTT2=
EXTT3=
EXTT4=
EXTT5=
EXTT6=
EXTT7=
EXTT8=
EXTT9=
EXTT10=
EXTT11=
EXTT12=
EXTT13=
EXTT14=
EXTT15=
EXTT16=
PLAYORDER=
